# xmcd
#
# Track frame offsets: 
#        180
#        19889
#        35555
#        61045
#        80297
#        101810
#        127019
#        142404
#        160637
#        185393
#        208603
#        226602
#        242569
#        266348
#        287199
#
# Disc length: 4124 seconds
#
# Revision: 0
# Processed by: cddbd v1.5.2PL0 Copyright (c) Steve Scherf et al.
# Submitted via: ExactAudioCopy v1.0b1
#
DISCID=cd101a0f
DTITLE=Various Artist - Seleksi Emas Vol. 4
DYEAR=1997
DGENRE=Melayu
TTITLE0=Nora, Sheila Majid, Johan Nawawi - Jentayu
TTITLE1=Jamal Abdillah - Kesal
TTITLE2=Sweet Charity - Kesal
TTITLE3=Iwan - Wulan
TTITLE4=Nora - Dendam Dalam Diam
TTITLE5=Sheila Majid - Gemilang
TTITLE6=Francissca Peter - Aku Kehilangan Mu
TTITLE7=Ella - Cinta Mawar Putih
TTITLE8=Hattan - Mahligai Syahdu
TTITLE9=Lefthanded - Seruan
TTITLE10=Zainal Abidin - Tumandang Kito
TTITLE11=Dato' Shake - Bicara Tentang Cinta
TTITLE12=Man Bai - Gadis Chiengmai
TTITLE13=Ramli Sarip and Khatijah Ibrahim - Ku Milki Bayangan Mu
TTITLE14=SM Salaim and Yusni Hamid - Pandang-Pandang, Jeling-Jeling
EXTD=
EXTT0=
EXTT1=
EXTT2=
EXTT3=
EXTT4=
EXTT5=
EXTT6=
EXTT7=
EXTT8=
EXTT9=
EXTT10=
EXTT11=
EXTT12=
EXTT13=
EXTT14=
PLAYORDER=
